<?xml version="1.0" standalone="no"?>
<!DOCTYPE svg PUBLIC "-//W3C//DTD SVG 20010904//EN"
 "http://www.w3.org/TR/2001/REC-SVG-20010904/DTD/svg10.dtd">
<svg version="1.0" xmlns="http://www.w3.org/2000/svg"
 width="256.000000pt" height="256.000000pt" viewBox="0 0 256.000000 256.000000"
 preserveAspectRatio="xMidYMid meet">

<g transform="translate(0.000000,256.000000) scale(0.100000,-0.100000)"
fill="#000000" stroke="none">
<path d="M1050 2546 c-149 -42 -259 -149 -310 -300 -21 -63 -21 -69 -18 -927
l3 -864 27 -73 c35 -97 76 -159 154 -231 213 -200 535 -200 748 0 78 72 119
134 154 231 l27 73 3 702 c3 768 4 751 -54 773 -40 16 -60 12 -93 -16 l-31
-26 0 -673 c0 -413 -4 -693 -10 -726 -22 -118 -99 -218 -208 -271 -61 -30 -74
-33 -162 -33 -88 0 -101 3 -162 33 -109 53 -186 153 -208 271 -6 34 -10 355
-10 856 0 890 -2 864 66 943 119 139 332 115 416 -47 l28 -53 0 -677 c0 -653
-1 -677 -20 -708 -50 -83 -170 -83 -220 0 -19 31 -20 54 -20 538 0 344 -4 516
-11 538 -11 32 -52 61 -88 61 -11 0 -33 -12 -50 -26 l-31 -26 0 -537 c0 -608
-2 -594 77 -681 25 -28 69 -63 97 -78 43 -22 64 -26 136 -26 72 0 93 4 136 26
28 15 72 50 97 78 81 90 78 54 75 856 l-3 709 -32 68 c-38 79 -114 163 -181
200 -98 53 -224 70 -322 43z"/>
</g>
</svg>
